<svg id="visual" viewBox="0 0 900 450" width="900" height="450" xmlns="http://www.w3.org/2000/svg" xmlns:xlink="http://www.w3.org/1999/xlink" version="1.1"><rect x="0" y="0" width="900" height="450" fill="#FFFFFF"></rect><path d="M0 116L21.5 123.3C43 130.7 86 145.3 128.8 153.7C171.7 162 214.3 164 257.2 159.8C300 155.7 343 145.3 385.8 141.2C428.7 137 471.3 139 514.2 146.5C557 154 600 167 642.8 162.8C685.7 158.7 728.3 137.3 771.2 128.8C814 120.3 857 124.7 878.5 126.8L900 129L900 0L878.5 0C857 0 814 0 771.2 0C728.3 0 685.7 0 642.8 0C600 0 557 0 514.2 0C471.3 0 428.7 0 385.8 0C343 0 300 0 257.2 0C214.3 0 171.7 0 128.8 0C86 0 43 0 21.5 0L0 0Z" fill="#ffffff"></path><path d="M0 134L21.5 128.8C43 123.7 86 113.3 128.8 110.5C171.7 107.7 214.3 112.3 257.2 114.8C300 117.3 343 117.7 385.8 121.7C428.7 125.7 471.3 133.3 514.2 136C557 138.7 600 136.3 642.8 127.8C685.7 119.3 728.3 104.7 771.2 107C814 109.3 857 128.7 878.5 138.3L900 148L900 0L878.5 0C857 0 814 0 771.2 0C728.3 0 685.7 0 642.8 0C600 0 557 0 514.2 0C471.3 0 428.7 0 385.8 0C343 0 300 0 257.2 0C214.3 0 171.7 0 128.8 0C86 0 43 0 21.5 0L0 0Z" fill="#cacace"></path><path d="M0 86L21.5 90C43 94 86 102 128.8 100.5C171.7 99 214.3 88 257.2 85.5C300 83 343 89 385.8 93.8C428.7 98.7 471.3 102.3 514.2 102.5C557 102.7 600 99.3 642.8 95C685.7 90.7 728.3 85.3 771.2 86.8C814 88.3 857 96.7 878.5 100.8L900 105L900 0L878.5 0C857 0 814 0 771.2 0C728.3 0 685.7 0 642.8 0C600 0 557 0 514.2 0C471.3 0 428.7 0 385.8 0C343 0 300 0 257.2 0C214.3 0 171.7 0 128.8 0C86 0 43 0 21.5 0L0 0Z" fill="#97979f"></path><path d="M0 83L21.5 80.5C43 78 86 73 128.8 68.3C171.7 63.7 214.3 59.3 257.2 57C300 54.7 343 54.3 385.8 58.7C428.7 63 471.3 72 514.2 74C557 76 600 71 642.8 65.5C685.7 60 728.3 54 771.2 57.2C814 60.3 857 72.7 878.5 78.8L900 85L900 0L878.5 0C857 0 814 0 771.2 0C728.3 0 685.7 0 642.8 0C600 0 557 0 514.2 0C471.3 0 428.7 0 385.8 0C343 0 300 0 257.2 0C214.3 0 171.7 0 128.8 0C86 0 43 0 21.5 0L0 0Z" fill="#676772"></path><path d="M0 38L21.5 39.7C43 41.3 86 44.7 128.8 44C171.7 43.3 214.3 38.7 257.2 37.5C300 36.3 343 38.7 385.8 38.8C428.7 39 471.3 37 514.2 33.2C557 29.3 600 23.7 642.8 21.3C685.7 19 728.3 20 771.2 21.7C814 23.3 857 25.7 878.5 26.8L900 28L900 0L878.5 0C857 0 814 0 771.2 0C728.3 0 685.7 0 642.8 0C600 0 557 0 514.2 0C471.3 0 428.7 0 385.8 0C343 0 300 0 257.2 0C214.3 0 171.7 0 128.8 0C86 0 43 0 21.5 0L0 0Z" fill="#3b3b48"></path></svg>